<?xml version="1.0" encoding="UTF-8"?> <!-- Generator: Adobe Illustrator 24.0.0, SVG Export Plug-In . SVG Version: 6.00 Build 0) --> <svg xmlns="http://www.w3.org/2000/svg" xmlns:xlink="http://www.w3.org/1999/xlink" version="1.1" id="Layer_1" x="0px" y="0px" viewBox="0 0 367.9 71.9" style="enable-background:new 0 0 367.9 71.9;" xml:space="preserve"> <style type="text/css"> .st0{fill:#008BA9;} </style> <path class="st0" d="M7.3,64.2V8h17.4c16.1,0,22.4,11.3,22.4,28.3c0,17-7,27.8-23,27.8H7.3L7.3,64.2z M1,69.7h23.2 c19.8,0,29.4-13.5,29.4-33.4c0-19.9-8.9-33.9-28.8-33.9H1V69.7L1,69.7z M57,69.7h6.4l7.9-21.2h29.3l7.8,21.2h6.8L89.6,2.5h-7.1 L57,69.7L57,69.7z M73.2,43.4l9.4-25.1c1.5-4,3.3-9.8,3.3-9.8h0.2c0,0,2,6,3.4,9.8l9.2,25.1H73.2L73.2,43.4z M133.9,69.7h6.4V40.6 l24.5-38.1h-6.8L137.2,35h-0.2L116.5,2.5h-7l24.3,37.9V69.7L133.9,69.7z M198.7,71.3c20.9,0,34.2-14.9,34.2-35 c0-20.1-13.4-35.1-34.2-35.1c-20.9,0-34.1,15-34.1,35.1C164.7,56.5,177.8,71.3,198.7,71.3L198.7,71.3z M198.8,55.6 c-9.4,0-14.2-8.3-14.2-19.3c0-11,4.8-19.4,14.2-19.4c9.4,0,14.2,8.4,14.2,19.4C213,47.3,208.2,55.6,198.8,55.6L198.8,55.6z M241.2,69.7h19V31.6h0.2l21.4,38.1h20.3V2.5h-19v37.8h-0.2l-22-37.8h-19.7V69.7L241.2,69.7z M313.4,69.7h53.3V52.9H333V42.4h27.4 V27.6H333v-9.1h32.7v-16h-52.4V69.7L313.4,69.7z"></path> </svg> 